Coordinates
version=1
nRows=21
nColumns=34
inDegrees=no

Units are S.I. units (second, meters, Newtons, ...)
If the header above contains a line with 'inDegrees', this indicates whether rotational values are in degrees (yes) or radians (no).

endheader
time	pelvis_tilt	pelvis_list	pelvis_rotation	pelvis_tx	pelvis_ty	pelvis_tz	hip_flexion_r	hip_adduction_r	hip_rotation_r	knee_angle_r	ankle_angle_r	subtalar_angle_r	mtp_angle_r	hip_flexion_l	hip_adduction_l	hip_rotation_l	knee_angle_l	ankle_angle_l	subtalar_angle_l	mtp_angle_l	lumbar_extension	lumbar_bending	lumbar_rotation	arm_flex_r	arm_add_r	arm_rot_r	elbow_flex_r	pro_sup_r	arm_flex_l	arm_add_l	arm_rot_l	elbow_flex_l	pro_sup_l
9.9	-0.328593	-0.0296323	-0.0287536	-0.30585	0.824602	-0.571098	0.941968	-0.121193	-0.105192	0.859467	0.388573	-0.0200429	-0.0230722	0.969998	-0.24495	-0.0600588	0.909884	0.341256	-0.0692307	-0.0230723	-0.334643	0.0407452	0.0283144	1.32149	-0.302907	0.15751	1.34623	1.68299	1.21711	-0.24801	0.00264493	1.29365	1.69291
9.91	-0.316193	-0.0307987	-0.0268486	-0.30253	0.832157	-0.571061	0.905072	-0.119591	-0.110667	0.825642	0.378485	-0.017069	-0.0230722	0.933908	-0.243181	-0.0660481	0.8772	0.331406	-0.0653567	-0.0230723	-0.330235	0.0420974	0.0257857	1.29593	-0.299957	0.152039	1.34889	1.68493	1.19062	-0.246495	-0.00202245	1.29774	1.69335
9.92	-0.303663	-0.0317809	-0.0250252	-0.299183	0.839459	-0.571016	0.868439	-0.11784	-0.115736	0.792241	0.368436	-0.0140257	-0.0230722	0.897907	-0.241331	-0.0720927	0.844841	0.321957	-0.0611382	-0.0230723	-0.325863	0.043131	0.0233024	1.27057	-0.29722	0.146804	1.35146	1.6876	1.16459	-0.245162	-0.00621921	1.3017	1.6933
9.93	-0.291021	-0.0325794	-0.0233312	-0.295818	0.84649	-0.570957	0.832155	-0.115903	-0.120368	0.759365	0.358426	-0.0109899	-0.0230722	0.862079	-0.239476	-0.0782197	0.81293	0.312974	-0.0565501	-0.0230723	-0.32155	0.0438407	0.020983	1.24548	-0.294801	0.141843	1.35395	1.691	1.13914	-0.243964	-0.00994668	1.30548	1.69285
9.94	-0.278293	-0.0332153	-0.021748	-0.292447	0.853234	-0.570886	0.796283	-0.113799	-0.124601	0.727098	0.348498	-0.0079718	-0.0230722	0.826525	-0.237627	-0.0843834	0.781578	0.304464	-0.0516217	-0.0230723	-0.317309	0.0442797	0.0188806	1.2207	-0.292797	0.137191	1.3564	1.69502	1.11432	-0.242841	-0.0132542	1.30911	1.69211
9.95	-0.265516	-0.0337251	-0.0202143	-0.289079	0.859683	-0.570811	0.76087	-0.111588	-0.12852	0.695501	0.338731	-0.00491932	-0.0230722	0.791355	-0.235758	-0.0904993	0.750874	0.296391	-0.0464102	-0.0230723	-0.313151	0.0445357	0.0169917	1.1963	-0.291269	0.132863	1.35886	1.69941	1.09015	-0.241744	-0.0162129	1.31261	1.69118
9.96	-0.252717	-0.034161	-0.0186594	-0.285725	0.865827	-0.570741	0.725932	-0.109317	-0.132223	0.664596	0.329207	-0.00175667	-0.0230722	0.756668	-0.23385	-0.0964857	0.72089	0.288709	-0.040956	-0.0230723	-0.3091	0.0447108	0.0152795	1.17231	-0.290237	0.128859	1.36139	1.70378	1.06664	-0.240649	-0.0188977	1.31604	1.69008
9.97	-0.23991	-0.0345914	-0.0170313	-0.282394	0.871667	-0.570682	0.691443	-0.106992	-0.13579	0.634357	0.31998	0.00156818	-0.0230722	0.722523	-0.231927	-0.102292	0.691671	0.281384	-0.0352521	-0.0230723	-0.305217	0.0449047	0.0136985	1.14876	-0.289678	0.125175	1.36406	1.70768	1.04378	-0.239567	-0.0213877	1.31951	1.68878
9.98	-0.227078	-0.0350949	-0.0153128	-0.279096	0.877207	-0.570632	0.657335	-0.104558	-0.139266	0.604706	0.31106	0.00505924	-0.0230722	0.688926	-0.230063	-0.10791	0.663222	0.274411	-0.0292428	-0.0230723	-0.301603	0.0452011	0.0122127	1.1257	-0.28954	0.121814	1.36691	1.71066	1.02157	-0.238531	-0.023777	1.32311	1.6872
9.99	-0.21418	-0.0357463	-0.0135271	-0.275842	0.882457	-0.570586	0.623509	-0.101924	-0.142651	0.575539	0.302419	0.00868039	-0.0230722	0.655826	-0.228363	-0.113378	0.635519	0.267817	-0.0228409	-0.0230723	-0.298396	0.0456556	0.010809	1.10317	-0.289749	0.118788	1.36998	1.71238	1.00003	-0.237585	-0.0261827	1.32693	1.68528
10	-0.201159	-0.0366006	-0.0117358	-0.272641	0.887428	-0.570534	0.589856	-0.0989843	-0.145909	0.546748	0.29401	0.0123807	-0.0230722	0.623121	-0.226938	-0.11878	0.608503	0.261641	-0.0159529	-0.0230723	-0.295753	0.0462859	0.00950567	1.0812	-0.290229	0.116105	1.37328	1.71287	0.979175	-0.236764	-0.0287306	1.33108	1.68286
10.01	-0.187943	-0.0376775	-0.0100342	-0.269501	0.892134	-0.570463	0.556279	-0.0956574	-0.148967	0.518247	0.285786	0.0161129	-0.0230722	0.590673	-0.225878	-0.124235	0.582099	0.255924	-0.00851185	-0.0230723	-0.293833	0.0470657	0.00835724	1.05985	-0.290908	0.113769	1.37678	1.71229	0.959057	-0.23609	-0.0315255	1.33559	1.67975
10.02	-0.174469	-0.038949	-0.00853903	-0.266432	0.896587	-0.570362	0.522713	-0.0919116	-0.151728	0.489995	0.277715	0.019847	-0.0230722	0.558335	-0.22522	-0.129876	0.556227	0.250686	-0.000510219	-0.0230723	-0.292764	0.0479225	0.00745211	1.03915	-0.291726	0.111759	1.3804	1.71092	0.939726	-0.235566	-0.0346098	1.34046	1.67569
10.03	-0.160696	-0.0403333	-0.0073687	-0.263437	0.900795	-0.57022	0.489159	-0.0877903	-0.154077	0.462007	0.269802	0.0235841	-0.0230722	0.525983	-0.224923	-0.135831	0.530813	0.245926	0.00798583	-0.0230723	-0.292613	0.0487416	0.00690158	1.01913	-0.292626	0.110003	1.38406	1.70912	0.921253	-0.235179	-0.0379358	1.34558	1.67047
10.04	-0.146625	-0.0417032	-0.00661945	-0.260523	0.904761	-0.57003	0.455685	-0.0834167	-0.155907	0.434361	0.262098	0.0273654	-0.0230722	0.493556	-0.224873	-0.142202	0.505816	0.241631	0.0168558	-0.0230723	-0.293373	0.0493822	0.00682423	0.999829	-0.29355	0.108351	1.38764	1.7073	0.903718	-0.234888	-0.0413568	1.35078	1.66388
10.05	-0.132298	-0.0429139	-0.00634481	-0.257692	0.908485	-0.569793	0.422417	-0.07897	-0.157141	0.407173	0.254701	0.0312684	-0.0230722	0.461069	-0.224902	-0.149052	0.481239	0.237802	0.0259555	-0.0230723	-0.294957	0.0497114	0.00733012	0.981251	-0.294429	0.106551	1.39105	1.7059	0.887213	-0.234627	-0.0446505	1.35576	1.65588
10.06	-0.117791	-0.0438577	-0.00653969	-0.254946	0.911963	-0.56951	0.389497	-0.0746221	-0.157748	0.380558	0.247722	0.0353743	-0.0230722	0.428619	-0.224857	-0.156388	0.457141	0.234474	0.0351628	-0.0230723	-0.297221	0.0496621	0.00850807	0.96339	-0.295176	0.104257	1.3942	1.70537	0.871825	-0.234308	-0.0475606	1.36022	1.64666
10.07	-0.103181	-0.0445285	-0.00712898	-0.252282	0.915192	-0.569193	0.357012	-0.0704563	-0.157766	0.354569	0.241242	0.0397192	-0.0230722	0.396358	-0.224674	-0.164149	0.43364	0.231732	0.0444328	-0.0230723	-0.300009	0.0492963	0.0104132	0.94622	-0.295697	0.101071	1.39706	1.70613	0.857616	-0.233835	-0.0498503	1.36382	1.63661
10.08	-0.0885006	-0.0450493	-0.00796805	-0.249695	0.918173	-0.568853	0.324929	-0.0664261	-0.157302	0.329164	0.235274	0.0442706	-0.0230722	0.364433	-0.224421	-0.172223	0.4109	0.229716	0.0538427	-0.0230723	-0.303212	0.0488248	0.0130497	0.929697	-0.295899	0.0966135	1.39965	1.70848	0.844611	-0.233117	-0.0513564	1.36629	1.6263
10.09	-0.0737161	-0.0456314	-0.00887084	-0.247176	0.920917	-0.568505	0.293074	-0.062387	-0.15652	0.304213	0.229773	0.0489432	-0.0230722	0.332929	-0.224269	-0.180502	0.389091	0.228595	0.063597	-0.0230723	-0.306799	0.0485476	0.0163577	0.913768	-0.295708	0.0906114	1.40203	1.71257	0.832782	-0.232094	-0.0520221	1.3675	1.61635
10.1	-0.0587697	-0.0464584	-0.00968127	-0.244713	0.923436	-0.568163	0.261255	-0.0582022	-0.155547	0.279585	0.22467	0.0536272	-0.0230722	0.301873	-0.224388	-0.188949	0.368343	0.228505	0.0739569	-0.0230723	-0.310774	0.0487072	0.020223	0.898375	-0.295088	0.0830034	1.40428	1.71828	0.822047	-0.230767	-0.0518947	1.36744	1.60722
